HIERARCHY
ROOT simHips
{
  OFFSET 6.13146 95.3961 -0.669452
  CHANNELS 6 Xposition Yposition Zposition Zrotation Xrotation Yrotation
  JOINT simSpine
  {
    OFFSET -0.000360269 21.3001 -0.0169217
    CHANNELS 3 Zrotation Xrotation Yrotation
    JOINT simLeftArm
    {
      OFFSET 13.5181 21.3012 -2.3511e-005
      CHANNELS 3 Zrotation Xrotation Yrotation
      JOINT simLeftForeArm
      {
        OFFSET 24.5783 0 -6.3921e-005
        CHANNELS 3 Zrotation Xrotation Yrotation
        JOINT simLeftHand
        {
          OFFSET 24.5783 0 0
          CHANNELS 3 Zrotation Xrotation Yrotation
          End Site
          {
            OFFSET 7.32568 1.52588e-005 0.0169305
          }
        }
      }
    }
    JOINT simHead
    {
      OFFSET 0 27.4458 -0.00488811
      CHANNELS 3 Zrotation Xrotation Yrotation
      End Site
      {
        OFFSET 0 0 0
      }
    }
    JOINT simRightArm
    {
      OFFSET -13.5174 21.3012 -1.52733e-005
      CHANNELS 3 Zrotation Xrotation Yrotation
      JOINT simRightForeArm
      {
        OFFSET -24.5783 -0.000552281 0.000112897
        CHANNELS 3 Zrotation Xrotation Yrotation
        JOINT simRightHand
        {
          OFFSET -24.5783 0 1.19926e-005
          CHANNELS 3 Zrotation Xrotation Yrotation
          End Site
          {
            OFFSET -7.32568 1.52588e-005 0.0169305
          }
        }
      }
    }
  }
  JOINT simRightUpLeg
  {
    OFFSET -8.44614 -9.41038 0.835682
    CHANNELS 3 Zrotation Xrotation Yrotation
    JOINT simRightLeg
    {
      OFFSET -3.23466e-005 -40.9639 0
      CHANNELS 3 Zrotation Xrotation Yrotation
      JOINT simRightFoot
      {
        OFFSET 0 -40.9639 0
        CHANNELS 3 Zrotation Xrotation Yrotation
        End Site
        {
          OFFSET 0.50614 -9.67405 14.6709
        }
      }
    }
  }
  JOINT simLeftUpLeg
  {
    OFFSET 8.44614 -9.41038 0.835681
    CHANNELS 3 Zrotation Xrotation Yrotation
    JOINT simLeftLeg
    {
      OFFSET -0.00018133 -40.964 6.2497e-005
      CHANNELS 3 Zrotation Xrotation Yrotation
      JOINT simLeftFoot
      {
        OFFSET 0 -40.9639 0
        CHANNELS 3 Zrotation Xrotation Yrotation
        End Site
        {
          OFFSET -0.50614 -9.67405 14.6709
        }
      }
    }
  }
}
MOTION
Frames:	15
Frame Time:	0.0333333
-182.632 96.3312 -2.66203 2.65515 5.50088 -28.6076 -1.5925 10.6183 13.6629 -65.8296 -1.50859 -3.54537 -7.73713e-006 -6.18074e-006 -66.4335 -29.8938 -39.5967 -53.4891 -0.645176 -14.803 -2.77144 57.6831 -2.96466 38.579 -0.00779232 1.17583e-006 87.0641 168.3 -15.8263 -148.569 -24.855 5.87208 -30.3797 -4.01082e-006 18.1206 0.0121362 27.8027 -11.3769 5.50614 27.3684 -35.8374 16.3225 0.000144964 37.5073 -0.0827089 -18.4511 -3.26518 -5.90032 
-183.32 96.2366 -2.48532 2.14608 3.65452 -28.4132 -1.53667 10.1285 13.4148 -66.0712 -1.8285 -2.38617 -7.80513e-006 -6.02243e-006 -67.0721 -30.1396 -39.5293 -53.8453 -0.75219 -13.8602 -2.66708 57.2398 -2.37339 38.8942 -0.00900059 5.50385e-007 88.6262 167.295 -16.6734 -148.314 -25.1015 8.05637 -29.7077 5.85749e-006 18.3406 0.0166878 27.9352 -12.0877 5.83952 26.6512 -33.7543 15.2618 -7.60569e-005 37.5272 -0.0920475 -18.8615 -3.54158 -6.18258 
-183.997 96.1457 -2.33717 1.65028 1.84275 -28.3351 -1.30398 9.59898 13.1462 -66.3925 -2.12365 -1.05548 -7.87939e-006 -5.84377e-006 -67.7892 -30.0945 -39.5031 -53.8644 -0.922688 -12.8585 -2.74695 56.9312 -1.84473 39.0455 -0.0106253 -6.02277e-008 90.1503 167.153 -17.6675 -147.918 -25.3621 10.1597 -28.9582 -2.79574e-005 18.5062 0.0209469 28.0605 -12.7612 6.16501 26.0534 -31.6315 14.316 -7.77225e-005 37.4709 -0.100988 -19.2742 -3.78576 -6.42119 
-184.643 96.0594 -2.20978 1.22131 0.0978568 -28.3599 -0.9939 9.02546 12.8392 -66.7615 -2.39776 0.313121 -7.95342e-006 -5.65907e-006 -68.5267 -30.178 -39.9065 -53.8504 -0.993813 -11.8596 -2.70211 56.6904 -1.29512 39.0719 -0.0123102 -6.19392e-007 91.546 167.357 -18.5141 -147.606 -25.6843 12.1342 -28.1701 3.48077e-005 18.6142 0.0249379 28.1675 -13.3825 6.48113 25.52 -29.539 13.4981 -2.71838e-005 37.3515 -0.109424 -19.6827 -4.00978 -6.61858 
-185.258 95.9761 -2.10493 0.767395 -1.62248 -28.4223 -0.556798 8.53833 12.587 -67.28 -2.60719 1.60332 -8.0109e-006 -5.51072e-006 -69.1164 -30.6516 -40.0802 -54.4137 -1.08 -11 -2.55453 56.4447 -0.945435 38.8521 -0.0136988 -1.17025e-006 92.9219 167.481 -18.6302 -147.993 -25.9983 14.115 -27.3872 0.000275034 18.6109 0.028409 28.2751 -13.934 6.80518 25.0541 -27.4372 12.724 2.71399e-005 37.1724 -0.117463 -20.0764 -4.20134 -6.79464 
-185.83 95.8969 -2.0372 0.321538 -3.25111 -28.4968 -0.031753 8.10935 12.322 -67.8667 -2.81279 2.90082 -8.07037e-006 -5.35225e-006 -69.7437 -31.1564 -39.9705 -54.9043 -1.21825 -9.96584 -2.29465 56.3024 -0.734092 38.4596 -0.0144347 -1.74621e-006 94.3623 167.61 -18.457 -148.039 -26.3046 15.9908 -26.636 0.000402008 18.5801 0.0320775 28.3732 -14.4495 7.1223 24.6511 -25.4285 11.9878 -0.000421468 36.9314 -0.124857 -20.4512 -4.33508 -6.92814 
-186.361 95.8207 -2.00317 -0.128033 -4.74306 -28.5869 0.564974 7.73068 12.0364 -68.4612 -2.97261 4.12015 -8.12618e-006 -5.19854e-006 -70.3498 -31.345 -39.6562 -55.0524 -1.311 -8.70089 -1.93504 56.2712 -0.648324 38.2022 -0.0141616 -2.33856e-006 95.8466 167.993 -18.6727 -146.575 -26.5664 17.7241 -25.9308 0.000411107 18.5351 0.035831 28.4502 -14.9367 7.42945 24.344 -23.5478 11.2983 -2.07226e-005 36.6422 -0.131976 -20.8127 -4.42349 -7.01639 
-186.841 95.7477 -2.00121 -0.564505 -6.11155 -28.6477 1.17129 7.40887 11.6517 -68.968 -3.13807 5.27755 -8.17553e-006 -5.05818e-006 -70.9012 -31.3545 -39.2829 -54.9568 -1.35416 -7.42687 -1.65452 56.4402 -0.626518 37.932 -0.0125231 -2.94394e-006 97.3677 168.853 -19.2835 -144.602 -26.793 19.3391 -25.3082 0.000275469 18.4757 0.0396448 28.5065 -15.3925 7.72186 24.0822 -21.8244 10.6128 0.00128847 36.3261 -0.138192 -21.1492 -4.47015 -7.06245 
-187.291 95.6757 -2.03124 -1.05014 -7.39151 -28.721 1.80714 7.2591 11.1959 -69.3821 -3.26876 6.34486 -8.22715e-006 -4.90657e-006 -71.4948 -31.1181 -39.0384 -54.7011 -1.29333 -6.5089 -1.47287 56.8801 -0.738211 37.6475 -0.00916269 -3.58611e-006 98.9869 170.454 -20.3756 -142.167 -26.9496 20.8802 -24.7157 -2.78826e-006 18.4073 0.0433893 28.5449 -15.8332 8.00654 23.9248 -20.1752 9.95929 0.00241089 35.9873 -0.143808 -21.4717 -4.4763 -7.09206 
-187.7 95.6064 -2.09012 -1.54645 -8.54444 -28.8265 2.44839 7.25434 10.7999 -69.738 -3.26873 7.20856 -8.26831e-006 -4.78184e-006 -71.9816 -31.0304 -38.7815 -54.6897 -1.17966 -5.78484 -1.31 57.275 -1.00937 37.2437 -0.000281959 -4.25607e-006 100.684 171.819 -21.1881 -140.008 -27.0568 22.2706 -24.1481 -0.000360538 18.351 0.0470711 28.5656 -16.2574 8.27433 23.8638 -18.6517 9.38451 0.00330421 35.6484 -0.14866 -21.7719 -4.44826 -7.1065 
-188.05 95.5452 -2.17681 -2.02045 -9.53607 -28.9734 3.12032 7.25055 10.4303 -70.0229 -3.14659 7.97704 -8.29368e-006 -4.70313e-006 -72.2881 -31.2694 -38.5821 -55.1334 -1.18196 -4.90856 -1.1256 57.5452 -1.24831 36.6265 0.00943802 -4.87933e-006 102.271 172.339 -21.4487 -138.957 -27.134 23.4408 -23.6022 -0.000700911 18.3263 0.0506354 28.5689 -16.658 8.51309 23.8755 -17.2994 8.91418 0.00269055 35.3132 -0.150496 -22.0373 -4.38572 -7.10346 
-188.318 95.494 -2.28732 -2.44618 -10.3528 -29.1837 3.83601 7.21058 10.0297 -70.2729 -3.00483 8.71354 -8.30902e-006 -4.65482e-006 -72.476 -31.8489 -38.4624 -55.8637 -1.23741 -3.86138 -0.893693 57.82 -1.39397 35.9859 -0.0684122 -5.46339e-006 103.767 173.036 -21.6704 -138.065 -27.2091 24.3516 -23.0619 -0.000879265 18.3209 0.0536073 28.5629 -17.0122 8.71683 23.9422 -16.1359 8.60513 0.00205706 34.9995 -0.151758 -22.2574 -4.29856 -7.10031 
-188.488 95.4535 -2.41801 -2.81419 -11.032 -29.4391 4.59379 7.20545 9.60769 -70.5233 -2.843 9.41591 -8.31932e-006 -4.62207e-006 -72.6032 -32.2342 -38.2342 -56.1233 -1.36601 -2.81711 -0.510744 57.8845 -1.57579 35.3609 -2.21541e-005 -6.01914e-006 105.2 173.543 -21.9523 -137.094 -27.3116 25.0407 -22.5225 -0.000963584 18.3128 0.0562266 28.5511 -17.3 8.88308 24.008 -15.1642 8.41017 0.00154288 34.7439 -0.152527 -22.414 -4.21207 -7.08081 
-188.554 95.4213 -2.56245 -3.0947 -11.5623 -29.6585 5.27763 7.30762 9.12632 -70.7953 -2.7532 9.96885 -8.32497e-006 -4.60401e-006 -72.6733 -32.3977 -37.8541 -56.0392 -1.48074 -2.14457 -0.0228874 57.917 -1.78192 34.7822 8.51774e-006 -6.56053e-006 106.605 173.782 -22.1828 -136.572 -27.4302 25.5261 -22.0577 -0.000861925 18.3001 0.0581754 28.5352 -17.5194 9.01098 24.0267 -14.462 8.26925 0.00126798 34.578 -0.152867 -22.4884 -4.13637 -7.04147 
-188.541 95.3985 -2.71105 -3.31423 -11.8911 -29.9018 5.94404 7.4496 8.66681 -71.1124 -2.67341 10.3801 -8.32613e-006 -4.60027e-006 -72.6878 -32.5572 -37.5119 -56.1433 -1.73623 -1.67953 0.277307 57.8789 -2.08719 34.239 0.0284511 -7.07604e-006 107.952 174.18 -22.4176 -136.321 -27.5153 25.7588 -21.6421 -0.0006494 18.2956 0.0596205 28.5087 -17.7009 9.10961 24.0845 -13.9967 8.27086 0.00114342 34.4698 -0.152729 -22.5043 -4.06325 -7.00751 
